<svg width="16" height="16" viewBox="0 0 16 16" fill="none" xmlns="http://www.w3.org/2000/svg">
<path d="M6.47349 7.41555C6.63783 7.41555 6.8085 7.45097 6.98549 7.52182C7.16247 7.59266 7.33314 7.68604 7.49749 7.80197H7.488C7.65235 7.91789 7.77877 8.07568 7.86726 8.27532C7.95576 8.47497 8 8.7036 8 8.96121V10.2847C8 10.8063 7.82934 11.196 7.488 11.4536C7.32366 11.576 7.15299 11.6726 6.976 11.7434C6.80534 11.8078 6.63783 11.84 6.47349 11.84H4.40652C4.24218 11.84 4.07151 11.8078 3.89452 11.7434C3.72386 11.6726 3.55635 11.576 3.392 11.4536C3.05067 11.196 2.88 10.8063 2.88 10.2847V9.6471C2.88 9.34441 3.06647 9.19306 3.43941 9.19306C3.81867 9.19306 4.0083 9.34441 4.0083 9.6471V10.2074C4.0083 10.3748 4.05571 10.5262 4.15052 10.6614C4.24534 10.7967 4.40968 10.8643 4.64356 10.8643H6.23645C6.47033 10.8643 6.63467 10.7967 6.72949 10.6614C6.8243 10.5262 6.87171 10.3748 6.87171 10.2074V9.03849C6.87171 8.87749 6.8243 8.72936 6.72949 8.59412C6.63467 8.45243 6.47033 8.38159 6.23645 8.38159H4.40652C4.07783 8.38159 3.73966 8.25922 3.392 8.01449C3.05067 7.744 2.88 7.35437 2.88 6.84559V5.696C2.88 5.43839 2.92425 5.21298 3.01275 5.01978C3.10124 4.82013 3.22766 4.65912 3.392 4.53676H3.38252C3.54687 4.42727 3.71754 4.33711 3.89452 4.26627C4.07151 4.19542 4.24218 4.16 4.40652 4.16H6.47349C6.63783 4.16 6.8085 4.19542 6.98549 4.26627C7.16247 4.33711 7.33314 4.42727 7.49749 4.53676H7.488C7.65235 4.65912 7.77877 4.82013 7.86726 5.01978C7.95576 5.21298 8 5.43839 8 5.696V6.26597C8 6.56866 7.81037 6.72 7.43112 6.72C7.05818 6.72 6.87171 6.56866 6.87171 6.26597V5.78295C6.87171 5.62194 6.8243 5.47381 6.72949 5.33857C6.63467 5.20332 6.47033 5.1357 6.23645 5.1357H4.64356C4.40968 5.1357 4.24534 5.20332 4.15052 5.33857C4.05571 5.47381 4.0083 5.62194 4.0083 5.78295V6.76831C4.0083 6.93575 4.05571 7.0871 4.15052 7.22234C4.24534 7.35115 4.40968 7.41555 4.64356 7.41555H6.47349Z" fill="black"/>
<path fill-rule="evenodd" clip-rule="evenodd" d="M11.0033 4.16C10.8077 4.16 10.6409 4.30137 10.6087 4.49424L10.5892 4.61142C10.5792 4.67135 10.5359 4.71981 10.479 4.74111C10.4444 4.75407 10.4103 4.7682 10.3769 4.78344C10.3216 4.80866 10.2566 4.80504 10.2072 4.76971L10.1105 4.70063C9.95135 4.58698 9.73339 4.60501 9.59513 4.74328L9.54324 4.79517C9.40498 4.93343 9.38694 5.15139 9.50059 5.3105L9.56967 5.40722C9.605 5.45668 9.60862 5.52162 9.5834 5.57692C9.56816 5.61035 9.55403 5.6444 9.54107 5.67901C9.51976 5.73591 9.47131 5.77924 9.41138 5.78923L9.2942 5.80876C9.10133 5.8409 8.95996 6.00778 8.95996 6.20331V6.27669C8.95996 6.47223 9.10133 6.6391 9.2942 6.67125L9.41138 6.69078C9.47131 6.70077 9.51976 6.7441 9.54107 6.801C9.55403 6.83561 9.56815 6.86965 9.58339 6.90308C9.60861 6.95838 9.605 7.02332 9.56967 7.07278L9.50058 7.1695C9.38693 7.32862 9.40497 7.54658 9.54323 7.68484L9.59512 7.73673C9.73338 7.87499 9.95134 7.89303 10.1105 7.77938L10.2072 7.71029C10.2566 7.67496 10.3216 7.67135 10.3769 7.69657C10.4103 7.71181 10.4444 7.72593 10.479 7.73889C10.5359 7.7602 10.5792 7.80865 10.5892 7.86859L10.6087 7.98576C10.6409 8.17864 10.8077 8.32 11.0033 8.32H11.0766C11.2722 8.32 11.4391 8.17864 11.4712 7.98576L11.4907 7.86859C11.5007 7.80865 11.5441 7.7602 11.601 7.7389C11.6356 7.72594 11.6696 7.71181 11.703 7.69657C11.7583 7.67135 11.8233 7.67496 11.8727 7.71029L11.9695 7.77938C12.1286 7.89303 12.3465 7.87499 12.4848 7.73673L12.5367 7.68484C12.6749 7.54658 12.693 7.32862 12.5793 7.1695L12.5102 7.07279C12.4749 7.02332 12.4713 6.95839 12.4965 6.90308C12.5118 6.86966 12.5259 6.83561 12.5389 6.801C12.5602 6.7441 12.6086 6.70077 12.6685 6.69078L12.7857 6.67125C12.9786 6.63911 13.12 6.47223 13.12 6.27669V6.20332C13.12 6.00778 12.9786 5.8409 12.7857 5.80876L12.6685 5.78923C12.6086 5.77924 12.5602 5.73591 12.5389 5.67901C12.5259 5.6444 12.5118 5.61036 12.4965 5.57693C12.4713 5.52162 12.4749 5.45669 12.5103 5.40723L12.5793 5.3105C12.693 5.15139 12.675 4.93343 12.5367 4.79517L12.4848 4.74328C12.3465 4.60501 12.1286 4.58698 11.9695 4.70063L11.8727 4.76972C11.8233 4.80505 11.7583 4.80866 11.703 4.78344C11.6696 4.7682 11.6356 4.75407 11.601 4.74111C11.5441 4.71981 11.5007 4.67135 11.4907 4.61142L11.4712 4.49424C11.4391 4.30137 11.2722 4.16 11.0767 4.16H11.0033ZM11.04 7.04C11.4818 7.04 11.84 6.68183 11.84 6.24C11.84 5.79818 11.4818 5.44 11.04 5.44C10.5981 5.44 10.24 5.79818 10.24 6.24C10.24 6.68183 10.5981 7.04 11.04 7.04Z" fill="black"/>
<path d="M11.6801 11.4635C11.6801 11.7145 11.4951 11.84 11.1251 11.84C10.7484 11.84 10.5601 11.7145 10.5601 11.4635V9.49647C10.5601 9.24549 10.7484 9.12 11.1251 9.12C11.4951 9.12 11.6801 9.24549 11.6801 9.49647V11.4635Z" fill="black"/>
</svg>
